<svg xmlns="http://www.w3.org/2000/svg" version="1.1" xmlns:xlink="http://www.w3.org/1999/xlink" xmlns:svgjs="http://svgjs.dev/svgjs" width="2000" height="1252" viewBox="0 0 2000 1252"><g transform="matrix(1,0,0,1,-1.2121212121212466,-2.01935483870966)"><svg viewBox="0 0 396 248" data-background-color="#000000" preserveAspectRatio="xMidYMid meet" height="1252" width="2000" xmlns="http://www.w3.org/2000/svg" xmlns:xlink="http://www.w3.org/1999/xlink"><g id="tight-bounds" transform="matrix(1,0,0,1,0.2400000000000091,0.4000000000000057)"><svg viewBox="0 0 395.52 247.2" height="247.2" width="395.52"><rect width="395.52" height="247.2" fill="url(#2a66259c-15c5-424e-b572-95695473390e)" mask="url(#ac7b312e-08ce-44ba-a613-737f094d2c04)" data-fill-palette-color="tertiary"></rect><g><svg></svg></g><g><svg viewBox="0 0 395.52 247.2" height="247.2" width="395.52"><g transform="matrix(1,0,0,1,93.34604369747899,47.215199999999996)"><svg viewBox="0 0 208.827912605042 152.7696" height="152.7696" width="208.827912605042"><g><svg viewBox="0 0 208.827912605042 152.7696" height="152.7696" width="208.827912605042"><g><svg viewBox="0 0 208.827912605042 152.7696" height="152.7696" width="208.827912605042"><g><svg viewBox="0 0 208.827912605042 152.7696" height="152.7696" width="208.827912605042"><g id="textblocktransform"><svg viewBox="0 0 208.827912605042 152.7696" height="152.7696" width="208.827912605042" id="textblock"><g><svg viewBox="0 0 208.827912605042 152.7696" height="152.7696" width="208.827912605042"><g transform="matrix(1,0,0,1,0,0)"><svg width="208.827912605042" viewBox="3.75 -35.7 48.8 35.7" height="152.7696" data-palette-color="url(#24a6ae72-2c87-4c6c-b07a-431eea044fac)"></svg></g></svg></g></svg></g></svg></g></svg></g></svg></g></svg></g><path d="M119.873 41.215L119.873 0 367.073 0 367.073 247.2 119.873 247.2 119.873 205.985 133.65 205.985 133.65 233.423 353.296 233.423 353.296 13.777 133.65 13.777 133.65 41.215Z" fill="url(#2a66259c-15c5-424e-b572-95695473390e)" stroke="transparent" data-fill-palette-color="tertiary"></path></svg></g><defs></defs><mask id="7e4e47e3-cfb8-4f63-95d0-e28b7194fc16"><g id="SvgjsG1857"><svg viewBox="0 0 395.52 247.2" height="247.2" width="395.52"><g><svg></svg></g><g><svg viewBox="0 0 395.52 247.2" height="247.2" width="395.52"><g transform="matrix(1,0,0,1,93.34604369747899,47.215199999999996)"><svg viewBox="0 0 208.827912605042 152.7696" height="152.7696" width="208.827912605042"><g><svg viewBox="0 0 208.827912605042 152.7696" height="152.7696" width="208.827912605042"><g><svg viewBox="0 0 208.827912605042 152.7696" height="152.7696" width="208.827912605042"><g><svg viewBox="0 0 208.827912605042 152.7696" height="152.7696" width="208.827912605042"><g id="SvgjsG1856"><svg viewBox="0 0 208.827912605042 152.7696" height="152.7696" width="208.827912605042" id="SvgjsSvg1855"><g><svg viewBox="0 0 208.827912605042 152.7696" height="152.7696" width="208.827912605042"><g transform="matrix(1,0,0,1,0,0)"><svg width="208.827912605042" viewBox="3.75 -35.7 48.8 35.7" height="152.7696" data-palette-color="url(#24a6ae72-2c87-4c6c-b07a-431eea044fac)"><path d="M3.75 0L3.75-35.7 7.45-35.7 7.45-19.7 12.65-24.9 20.4-24.9 25-20.3 25 0 21.3 0 21.3-19.15 18.8-21.6 13.65-21.6 7.45-15.4 7.45 0 3.75 0ZM35.6 0L31.5-4.1 31.5-10.45 35.6-14.5 48.9-14.5 48.9-19.25 46.4-21.7 37.9-21.7 35.4-19.25 35.4-17.2 31.7-17.2 31.7-20.3 36.3-24.9 47.95-24.9 52.55-20.3 52.55 0 49 0 49-4.4 44.4 0 35.6 0ZM37.2-3.2L43.65-3.2 48.9-8.25 48.9-11.3 37.2-11.3 35.2-9.35 35.2-5.15 37.2-3.2Z" opacity="1" transform="matrix(1,0,0,1,0,0)" fill="white" class="wordmark-text-0" id="SvgjsPath1854"></path></svg></g></svg></g></svg></g></svg></g></svg></g></svg></g></svg></g><path d="M119.873 41.215L119.873 0 367.073 0 367.073 247.2 119.873 247.2 119.873 205.985 133.65 205.985 133.65 233.423 353.296 233.423 353.296 13.777 133.65 13.777 133.65 41.215Z" fill="black" stroke="transparent"></path></svg></g><defs><mask></mask></defs></svg><rect width="395.52" height="247.2" fill="black" stroke="none" visibility="hidden"></rect></g></mask><linearGradient x1="0" x2="1" y1="0.548" y2="0.55" id="24a6ae72-2c87-4c6c-b07a-431eea044fac"><stop stop-color="#ff6cab" offset="0"></stop><stop stop-color="#7366ff" offset="1"></stop></linearGradient><rect width="395.52" height="247.2" fill="url(#24a6ae72-2c87-4c6c-b07a-431eea044fac)" mask="url(#7e4e47e3-cfb8-4f63-95d0-e28b7194fc16)" data-fill-palette-color="primary"></rect><mask id="ac7b312e-08ce-44ba-a613-737f094d2c04"><g id="SvgjsG1880"><svg viewBox="0 0 395.52 247.2" height="247.2" width="395.52"><g><svg></svg></g><g><svg viewBox="0 0 395.52 247.2" height="247.2" width="395.52"><g transform="matrix(1,0,0,1,93.34604369747899,47.215199999999996)"><svg viewBox="0 0 208.827912605042 152.7696" height="152.7696" width="208.827912605042"><g><svg viewBox="0 0 208.827912605042 152.7696" height="152.7696" width="208.827912605042"><g><svg viewBox="0 0 208.827912605042 152.7696" height="152.7696" width="208.827912605042"><g><svg viewBox="0 0 208.827912605042 152.7696" height="152.7696" width="208.827912605042"><g id="SvgjsG1879"><svg viewBox="0 0 208.827912605042 152.7696" height="152.7696" width="208.827912605042" id="SvgjsSvg1878"><g><svg viewBox="0 0 208.827912605042 152.7696" height="152.7696" width="208.827912605042"><g transform="matrix(1,0,0,1,0,0)"><svg width="208.827912605042" viewBox="3.75 -35.7 48.8 35.7" height="152.7696" data-palette-color="url(#24a6ae72-2c87-4c6c-b07a-431eea044fac)"></svg></g></svg></g></svg></g></svg></g></svg></g></svg></g></svg></g><path d="M119.873 41.215L119.873 0 367.073 0 367.073 247.2 119.873 247.2 119.873 205.985 133.65 205.985 133.65 233.423 353.296 233.423 353.296 13.777 133.65 13.777 133.65 41.215Z" fill="white" stroke="transparent"></path></svg></g><defs><mask></mask></defs><mask><g id="SvgjsG1877"><svg viewBox="0 0 395.52 247.2" height="247.2" width="395.52"><g><svg></svg></g><g><svg viewBox="0 0 395.52 247.2" height="247.2" width="395.52"><g transform="matrix(1,0,0,1,93.34604369747899,47.215199999999996)"><svg viewBox="0 0 208.827912605042 152.7696" height="152.7696" width="208.827912605042"><g><svg viewBox="0 0 208.827912605042 152.7696" height="152.7696" width="208.827912605042"><g><svg viewBox="0 0 208.827912605042 152.7696" height="152.7696" width="208.827912605042"><g><svg viewBox="0 0 208.827912605042 152.7696" height="152.7696" width="208.827912605042"><g id="SvgjsG1876"><svg viewBox="0 0 208.827912605042 152.7696" height="152.7696" width="208.827912605042" id="SvgjsSvg1875"><g><svg viewBox="0 0 208.827912605042 152.7696" height="152.7696" width="208.827912605042"><g transform="matrix(1,0,0,1,0,0)"><svg width="208.827912605042" viewBox="3.75 -35.7 48.8 35.7" height="152.7696" data-palette-color="url(#24a6ae72-2c87-4c6c-b07a-431eea044fac)"><path d="M3.75 0L3.75-35.7 7.45-35.7 7.45-19.7 12.65-24.9 20.4-24.9 25-20.3 25 0 21.3 0 21.3-19.15 18.8-21.6 13.65-21.6 7.45-15.4 7.45 0 3.75 0ZM35.6 0L31.5-4.1 31.5-10.45 35.6-14.5 48.9-14.5 48.9-19.25 46.4-21.7 37.9-21.7 35.4-19.25 35.4-17.2 31.7-17.2 31.7-20.3 36.3-24.9 47.95-24.9 52.55-20.3 52.55 0 49 0 49-4.4 44.4 0 35.6 0ZM37.2-3.2L43.65-3.2 48.9-8.25 48.9-11.3 37.2-11.3 35.2-9.35 35.2-5.15 37.2-3.2Z" opacity="1" transform="matrix(1,0,0,1,0,0)" fill="black" class="wordmark-text-0" id="SvgjsPath1874"></path></svg></g></svg></g></svg></g></svg></g></svg></g></svg></g></svg></g><path d="M119.873 41.215L119.873 0 367.073 0 367.073 247.2 119.873 247.2 119.873 205.985 133.65 205.985 133.65 233.423 353.296 233.423 353.296 13.777 133.65 13.777 133.65 41.215Z" fill="black" stroke="transparent"></path></svg></g><defs><mask></mask></defs></svg><rect width="395.52" height="247.2" fill="black" stroke="none" visibility="hidden"></rect></g></mask></svg><rect width="395.52" height="247.2" fill="black" stroke="none" visibility="hidden"></rect></g></mask><linearGradient x1="0" x2="1" y1="0.548" y2="0.55" id="2a66259c-15c5-424e-b572-95695473390e"><stop stop-color="#ff6cab" offset="0"></stop><stop stop-color="#7366ff" offset="1"></stop></linearGradient></svg><rect width="395.52" height="247.2" fill="none" stroke="none" visibility="hidden"></rect></g></svg></g></svg>